<svg width="350" height="394" viewBox="0 0 350 394" fill="none" xmlns="http://www.w3.org/2000/svg">
<path d="M57.2226 153.913C151.014 283.119 172.782 217.237 168.3 124.17C163.819 31.1034 203.832 -17.8286 258.891 55.4095C313.95 128.648 394.617 344.844 235.523 300.389C76.4291 255.935 17.2091 281.52 95.3155 336.529C173.422 391.537 244.486 425.758 235.523 321.817C226.56 217.877 311.389 140.801 187.187 113.616C62.9846 86.4317 90.5139 120.972 85.7123 167.985C80.9106 214.998 63.9449 230.989 82.5112 247.62C101.077 264.25 38.0161 302.948 153.575 330.772C269.134 358.596 295.063 206.363 285.46 191.332C275.857 176.3 263.372 121.612 295.063 64.0446C326.754 6.47748 129.247 -17.8286 85.7123 31.743C42.1775 81.3147 -48.4131 199.647 47.2992 230.669C143.012 261.691 328.354 258.493 345 164.147" stroke="url(#paint0_linear_48_129)" stroke-width="9"/>
<defs>
<linearGradient id="paint0_linear_48_129" x1="345" y1="196.307" x2="5" y2="196.307" gradientUnits="userSpaceOnUse">
<stop stop-color="#A7FFEF"/>
<stop offset="1" stop-color="#C0B7F9"/>
</linearGradient>
</defs>
</svg>
